<svg xmlns="http://www.w3.org/2000/svg" viewBox="0 0 512 512">
  <path fill="#fff" d="M94.081 94v54.006c149.138 0 270.03 120.892 270.03 270.03h54.006v-1.701c0-10.558-0.702-20.927-1.701-31.216-0.054-0.567 0.054-1.134 0-1.701-1.053-10.288-3.078-20.414-5.077-30.378-0.108-0.54 0.108-1.161 0-1.701-6.373-31.242-17.363-60.541-32.079-87.76-0.108-0.216 0.108-0.648 0-0.837-39.937-73.556-107.553-129.561-189.021-154.43-9.64-2.997-19.55-5.509-29.542-7.588-0.54-0.108-1.161 0.108-1.701 0-10.018-2.052-20.063-3.969-30.378-5.077-0.567-0.054-1.134 0.054-1.701 0-10.342-1.053-20.63-1.62-31.216-1.701h-1.701m0 108.012v54.006c89.488 0 162.018 72.53 162.018 162.018h54.006c0-119.299-96.725-216.024-216.024-216.024m54.006 108.012c-29.838 0-54.006 24.168-54.006 54.006s24.168 54.006 54.006 54.006c29.838 0 54.006-24.168 54.006-54.006s-24.168-54.006-54.006-54.006" />
</svg>
